<?xml version="1.0" encoding="UTF-8" standalone="no"?>
<!-- Generator: Adobe Illustrator 16.0.0, SVG Export Plug-In . SVG Version: 6.00 Build 0)  -->

<svg
   xmlns:dc="http://purl.org/dc/elements/1.1/"
   xmlns:cc="http://creativecommons.org/ns#"
   xmlns:rdf="http://www.w3.org/1999/02/22-rdf-syntax-ns#"
   xmlns:svg="http://www.w3.org/2000/svg"
   xmlns="http://www.w3.org/2000/svg"
   xmlns:sodipodi="http://sodipodi.sourceforge.net/DTD/sodipodi-0.dtd"
   xmlns:inkscape="http://www.inkscape.org/namespaces/inkscape"
   version="1.1"
   id="Capa_1"
   x="0px"
   y="0px"
   width="97"
   height="96"
   viewBox="0 0 97.000002 96.000002"
   xml:space="preserve"
   inkscape:version="0.91 r13725"
   sodipodi:docname="2d.svg"><metadata
     id="metadata3633"><rdf:RDF><cc:Work
         rdf:about=""><dc:format>image/svg+xml</dc:format><dc:type
           rdf:resource="http://purl.org/dc/dcmitype/StillImage" /><dc:title></dc:title></cc:Work></rdf:RDF></metadata><defs
     id="defs3631" /><sodipodi:namedview
     pagecolor="#ffffff"
     bordercolor="#666666"
     borderopacity="1"
     objecttolerance="10"
     gridtolerance="10"
     guidetolerance="10"
     inkscape:pageopacity="0"
     inkscape:pageshadow="2"
     inkscape:window-width="1920"
     inkscape:window-height="1020"
     id="namedview3629"
     showgrid="false"
     inkscape:zoom="5.2403364"
     inkscape:cx="72.15684"
     inkscape:cy="59.430866"
     inkscape:window-x="0"
     inkscape:window-y="31"
     inkscape:window-maximized="1"
     inkscape:current-layer="Capa_1" /><g
     id="g3587"
     transform="matrix(0.12459917,0,0,0.10889157,17.835115,22.346306)"
     style="fill:#ffffff"><g
       id="g3589"
       style="fill:#ffffff"><path
         d="M 316.407,0 171.999,61.762 19.758,9.049 l 0,447.447 157.727,53.02 157.737,-65.352 154.536,20.832 0,-445.761 L 316.407,0 Z m 133.351,83.623 -82.504,-18.16 -39.656,17.018 -70.986,5.973 -18.664,15.641 3.771,4.381 -0.693,9.699 -9.543,-0.502 -1.23,17.393 64.321,47.064 16.878,52.07 23.475,-25.34 -5.578,-12.514 -7.429,4.883 -5.847,-15.203 39.83,22.207 7.504,37.539 21.857,-38.035 6.232,17.389 13.546,15.098 3.195,-25.732 5.889,-3.439 14.316,-18.145 -10.97,-32.848 4.504,-4.879 13.969,16.266 1.154,-3.564 8.093,-51.912 4.563,3.023 0,200.403 -9.385,-4.099 -18.099,-1.408 -18.338,-12.946 2.156,-7.535 -16.223,-2.586 -34.447,37.352 4.488,46.969 59.297,10.564 0.463,13.449 15.598,4.282 14.49,-25.651 0,41.455 -119.882,-16.16 -153.854,63.742 -116.261,-39.083 0,-291.056 16.428,-0.4 3.389,31.186 -11.201,30.441 31.384,59.345 11.641,-23.371 -12.315,7.818 -2.695,-21.08 22.784,-11.01 2.615,12.387 1.155,0.311 31.894,-51.852 0.24,0.236 -3.27,-13.449 21.936,-10.324 -20.17,-28.514 -7.615,-19.787 -86.2,6.951 0,-40.345 113.759,39.389 148.94,-63.701 127.301,14.124 0,28.582 z"
         id="path3591"
         inkscape:connector-curvature="0"
         style="fill:#ffffff" /><polygon
         points="128.258,348.758 127.739,391.979 153.537,443.166 166.782,407.979 165.131,391.797 193.426,323.091 164.507,298.016 165.274,282.689 134.104,260.164 116.016,268.299 85.758,313.758 "
         id="polygon3593"
         style="fill:#ffffff" /><polygon
         points="240.174,289.258 244.764,300.83 244.764,337.121 258.451,385.42 320.459,255.16 306.166,255.912 290.464,223.252 271.775,227.574 267.734,198.102 262.812,196.037 259.672,201.854 242.328,186.465 189.928,228.256 190.024,252.656 226.487,270.299 227.19,263.918 248.983,282.375 "
         id="polygon3595"
         style="fill:#ffffff" /><polygon
         points="190.866,227.006 191.125,225.791 191.099,225.756 "
         id="polygon3597"
         style="fill:#ffffff" /></g></g><g
     id="g3599"
     transform="translate(0,-413.51599)" /><g
     id="g3601"
     transform="translate(0,-413.51599)" /><g
     id="g3603"
     transform="translate(0,-413.51599)" /><g
     id="g3605"
     transform="translate(0,-413.51599)" /><g
     id="g3607"
     transform="translate(0,-413.51599)" /><g
     id="g3609"
     transform="translate(0,-413.51599)" /><g
     id="g3611"
     transform="translate(0,-413.51599)" /><g
     id="g3613"
     transform="translate(0,-413.51599)" /><g
     id="g3615"
     transform="translate(0,-413.51599)" /><g
     id="g3617"
     transform="translate(0,-413.51599)" /><g
     id="g3619"
     transform="translate(0,-413.51599)" /><g
     id="g3621"
     transform="translate(0,-413.51599)" /><g
     id="g3623"
     transform="translate(0,-413.51599)" /><g
     id="g3625"
     transform="translate(0,-413.51599)" /><g
     id="g3627"
     transform="translate(0,-413.51599)" /></svg>