<svg width="26.1px" height="26.1px" viewBox="0 -0.05 26.1 26.1" xmlns="http://www.w3.org/2000/svg">
  <g id="Group_719" data-name="Group 719" transform="translate(-50 -100)">
    <path id="Path_1486" data-name="Path 1486" d="M63,126c-7.2,0-13-1.6-13-3.5,0-1.3,2.6-2.4,6.5-3l1.6,1.7c-3.6.2-5.5.8-5.5,1.3,0,.8,4.3,1.5,10.4,1.5s10.5-.7,10.5-1.5c0-.6-1.9-1.1-5.5-1.3l1.6-1.7c3.9.6,6.5,1.7,6.5,3C76,124.4,70.2,126,63,126Zm4-17a4,4,0,1,1-4-4A4.012,4.012,0,0,1,67,109Zm-6,0a2,2,0,1,0,2-2A2.006,2.006,0,0,0,61,109Zm3,12-1,1-1-1c-.3-.4-6.6-5.8-7.8-10.5-.1-.3-.3-1.4.8-1.5.9-.1,1.1,1,1.1,1,.8,3.5,5.2,6.9,6.9,9,1.8-2.3,7-6.1,7-10,0-4.5-2.6-7-7-7-3.3,0-5.6,1.4-6.5,4,0,0-.4,1.2-1.1,1-.8-.2-.9-.8-.6-1.7A9,9,0,0,1,72,109C72,114,64.4,120.6,64,121Z" fill="#444"/>
  </g>
</svg>
